<?xml version="1.0" encoding="utf-8"?>
<!-- Generator: Adobe Illustrator 19.0.1, SVG Export Plug-In . SVG Version: 6.00 Build 0)  -->
<svg version="1.1" xmlns="http://www.w3.org/2000/svg" xmlns:xlink="http://www.w3.org/1999/xlink" x="0px" y="0px"
	 viewBox="0 0 648 648" style="enable-background:new 0 0 648 648;" xml:space="preserve">
<style type="text/css">
	.st0{display:none;}
	.st1{display:inline;}
	.st2{display:inline;fill:#FFFFFF;}
	.st3{opacity:0.5;fill:none;stroke:#BDCCD4;stroke-width:18;stroke-miterlimit:10;}
	.st4{opacity:0.3;fill:#FF7BAC;}
	.st5{opacity:0.3;fill:#FF931E;}
	.st6{opacity:0.3;fill:#7AC943;}
	.st7{opacity:0.3;fill:#3FA9F5;}
	.st8{opacity:0.3;fill:#FF1D25;}
	.st9{display:inline;opacity:0.3;fill:#FF7BAC;}
	.st10{display:inline;opacity:0.3;fill:#FF931E;}
	.st11{display:inline;opacity:0.3;fill:#FF1D25;}
	.st12{display:inline;opacity:0.3;fill:#3FA9F5;}
	.st13{display:inline;opacity:0.2;fill:#FF931E;}
	.st14{display:inline;opacity:0.5;fill:#3FA9F5;}
	.st15{display:inline;opacity:0.4;fill:#FF1D25;}
	.st16{display:inline;opacity:0.2;fill:#FF7BAC;}
	.st17{display:inline;opacity:0.2;fill:#3FA9F5;}
	.st18{display:inline;opacity:0.5;fill:#FF1D25;}
	.st19{display:inline;opacity:0.5;fill:#FF931E;}
	.st20{display:inline;opacity:0;}
	.st21{display:inline;opacity:0.4;fill:#FF7BAC;}
	.st22{display:inline;opacity:0.5;fill:#7AC943;}
	.st23{display:inline;opacity:0.3;fill:#7AC943;}
	.st24{display:inline;opacity:0.4;fill:#FF931E;}
	.st25{display:inline;opacity:0.2;fill:#FF1D25;}
	.st26{display:inline;opacity:0.2;fill:#7AC943;}
</style>
<g id="Layer_9" class="st0">
	<g id="Layer_10" class="st1">
		<rect width="324" height="324"/>
		<rect x="324" width="324" height="324"/>
		<rect x="324" y="324" width="324" height="324"/>
		<rect y="324" width="324" height="324"/>
	</g>
</g>
<g id="outer_circle" class="st0">
	<circle class="st2" cx="324" cy="324" r="212.1"/>
	<circle class="st3" cx="324" cy="324" r="212.1"/>
</g>
<g id="circles">
	<circle class="st4" cx="324.4" cy="323.9" r="53"/>
	<circle class="st5" cx="324.4" cy="217.9" r="53"/>
	<circle class="st6" cx="324.4" cy="111.9" r="53"/>
	<circle class="st5" cx="324.4" cy="429.9" r="53"/>
	<circle class="st6" cx="324.4" cy="535.9" r="53"/>
	<circle class="st7" cx="430.4" cy="429.9" r="53"/>
	<circle class="st7" cx="430.4" cy="217.9" r="53"/>
	<circle class="st7" cx="218.4" cy="217.9" r="53"/>
	<circle class="st7" cx="218.4" cy="429.9" r="53"/>
	<circle class="st5" cx="430.4" cy="323.9" r="53"/>
	<circle class="st8" cx="536.4" cy="323.9" r="53"/>
	<circle class="st5" cx="218.4" cy="323.9" r="53"/>
	<circle class="st8" cx="112.4" cy="323.9" r="53"/>
</g>
<g id="circles2" class="st0">
	<circle class="st9" cx="324.4" cy="323.9" r="53"/>
	<circle class="st9" cx="399.4" cy="249" r="53"/>
	<circle class="st10" cx="474.3" cy="174" r="53"/>
	<circle class="st9" cx="249.4" cy="398.9" r="53"/>
	<circle class="st10" cx="174.5" cy="473.8" r="53"/>
	<circle class="st11" cx="324.4" cy="473.8" r="53"/>
	<circle class="st11" cx="474.3" cy="323.9" r="53"/>
	<circle class="st11" cx="324.4" cy="174" r="53"/>
	<circle class="st11" cx="174.5" cy="323.9" r="53"/>
	<circle class="st9" cx="399.4" cy="398.9" r="53"/>
	<circle class="st12" cx="474.3" cy="473.8" r="53"/>
	<circle class="st9" cx="249.4" cy="249" r="53"/>
	<circle class="st12" cx="174.5" cy="174" r="53"/>
</g>
<g id="square3" class="st0">
	<rect x="218" y="217.9" class="st9" width="53.4" height="53.4"/>
	<rect x="376.7" y="217.9" class="st9" width="53.4" height="53.4"/>
	<polygon class="st9" points="430.1,430.3 376.7,430.3 376.7,376.9 430.2,376.9 	"/>
	<rect x="218" y="376.9" class="st9" width="53.4" height="53.4"/>
</g>
<g id="square4" class="st0">
	<rect x="270.8" y="270.3" class="st9" width="106.7" height="106.7"/>
</g>
<g id="outer" class="st0">
	<polygon class="st13" points="218,218 271.4,217.9 324.1,111.6 	"/>
	<polyline class="st13" points="324.1,535.5 271.4,430.3 218,430 324.1,535.5 	"/>
	<polygon class="st14" points="271.4,430.3 324.1,535.8 323.9,430 	"/>
	<polygon class="st12" points="376.7,430.3 323.9,430 324.1,535.8 	"/>
	<polygon class="st13" points="430.1,430.3 376.7,430 324.1,535.5 	"/>
	<polygon class="st13" points="430.1,430.3 535.9,323.7 430.2,376.9 	"/>
	<polygon class="st11" points="430.2,376.9 536.2,323.7 430.2,323.9 	"/>
	<polygon class="st15" points="430.1,271.3 430.2,323.9 536.2,323.7 	"/>
	<polygon class="st13" points="430,217.9 430.1,271.3 536.1,323.7 	"/>
	<polygon class="st13" points="218,271.3 111.9,323.7 218,217.9 	"/>
	<polygon class="st11" points="218,271.3 111.9,323.7 217.8,323.7 	"/>
	<polygon class="st15" points="218,376.9 217.8,323.7 111.9,323.7 	"/>
	<polygon class="st13" points="218,430.3 218,376.9 111.9,323.7 	"/>
	<polygon class="st12" points="271.4,217.9 324.1,217.5 324.1,111.6 	"/>
	<polygon class="st14" points="376.7,217.9 324.1,111.6 324.1,217.5 	"/>
	<polygon class="st13" points="324.1,111.6 430.1,218 376.7,217.9 	"/>
</g>
<g id="inner_1_" class="st0">
	<polyline class="st16" points="376.7,271.3 430.2,323.9 324.4,323.9 376.7,271.3 	"/>
	<polygon class="st16" points="324.4,323.9 324.1,217.5 376.7,271.3 	"/>
	<polygon class="st17" points="324.1,217.5 376.7,271.3 395,253 	"/>
	<polygon class="st11" points="430.2,323.9 395,253 376.7,271.3 	"/>
	<polygon class="st18" points="430.2,323.9 430.1,271.3 395,253 	"/>
	<polygon class="st14" points="376.7,217.9 324.1,217.5 395,253 	"/>
	<polygon class="st10" points="430.1,271.3 430,217.9 394.9,253 	"/>
	<polygon class="st19" points="376.7,218 395,253 430.1,218 	"/>
	<polyline class="st20" points="376.7,376.9 323.9,430 324.4,323.9 376.7,376.9 	"/>
	<polygon class="st21" points="324.4,323.9 430.2,323.9 376.7,376.9 	"/>
	<polygon class="st11" points="430.2,323.9 376.7,376.9 394.9,395.4 	"/>
	<polygon class="st17" points="323.9,430 394.9,395.4 376.7,376.9 	"/>
	<polygon class="st14" points="323.9,430 376.7,430.3 394.9,395.4 	"/>
	<polygon class="st18" points="430.2,376.9 430.2,323.9 394.9,395.4 	"/>
	<polygon class="st10" points="376.7,430 430.1,430.3 394.9,395.1 	"/>
	<polygon class="st19" points="394.8,395.4 430.2,376.9 430,430.3 	"/>
	<polyline class="st16" points="271.4,376.9 324.4,323.9 217.8,323.7 271.4,376.9 	"/>
	<polygon class="st16" points="324.4,323.9 323.9,430 271.4,376.9 	"/>
	<polygon class="st17" points="323.9,430 271.4,376.9 253.3,395.1 	"/>
	<polygon class="st11" points="217.8,323.7 253.3,395.1 271.4,376.9 	"/>
	<polygon class="st18" points="217.8,323.7 218,376.9 253.3,395.1 	"/>
	<polygon class="st14" points="271.4,430.3 323.9,430 253.3,395.1 	"/>
	<polygon class="st10" points="218,376.9 218,430.3 253.3,395.1 	"/>
	<polygon class="st19" points="271.4,430.3 253.3,394.7 218,430 	"/>
	<polyline class="st20" points="271.4,271.3 324.4,323.9 324.1,217.5 271.4,271.3 	"/>
	<polygon class="st21" points="324.4,323.9 217.8,323.7 271.4,271.3 	"/>
	<polygon class="st11" points="217.8,323.7 271.4,271.3 253.7,253.3 	"/>
	<polygon class="st17" points="324.1,217.5 253.7,253.3 271.4,271.3 	"/>
	<polygon class="st14" points="324.1,217.5 271.4,217.9 253.7,253.3 	"/>
	<polygon class="st18" points="218,271.3 217.8,323.7 253.7,253.3 	"/>
	<polygon class="st10" points="271.4,218 218,218 253.7,253.3 	"/>
	<polygon class="st19" points="253.7,253.3 218,271.3 218,217.9 	"/>
</g>
<g id="thing2" class="st0">
	<polygon class="st17" points="323.8,174 361.6,211.7 474,173.7 	"/>
	<polyline class="st17" points="174.3,473.5 211.4,361.9 173.9,323.9 174.3,473.5 	"/>
	<polygon class="st22" points="211.4,361.9 174.1,473.7 248.7,398.8 	"/>
	<polygon class="st23" points="285.9,436.3 248.7,398.8 174.1,473.7 	"/>
	<polygon class="st17" points="323.7,474.1 286.1,436.1 174.3,473.5 	"/>
	<polygon class="st17" points="323.7,474.1 473.9,473.5 361.4,436.3 	"/>
	<polygon class="st10" points="361.4,436.3 474.1,473.7 399,398.9 	"/>
	<polygon class="st24" points="436.1,361.7 399,398.9 474.1,473.7 	"/>
	<polygon class="st17" points="473.8,323.8 436.1,361.7 474,473.6 	"/>
	<polygon class="st17" points="286.1,211.7 174.1,173.7 323.9,173.9 	"/>
	<polygon class="st10" points="286.1,211.7 174.1,173.7 248.9,248.5 	"/>
	<polygon class="st24" points="211.4,286.3 248.9,248.5 174.1,173.7 	"/>
	<polygon class="st17" points="173.7,324.1 211.4,286.3 174.1,173.7 	"/>
	<polygon class="st23" points="361.6,211.7 399.2,248.7 474.1,173.7 	"/>
	<polygon class="st22" points="436.1,286.1 474.1,173.7 399.2,248.7 	"/>
	<polygon class="st17" points="474,173.7 473.8,324 436.1,286.1 	"/>
	<polyline class="st25" points="398.3,323.9 399,398.9 324.1,324.1 398.3,323.9 	"/>
	<polygon class="st25" points="324.1,324.1 399.2,248.7 398.3,323.9 	"/>
	<polygon class="st26" points="399.2,248.7 398.3,323.9 424.3,323.9 	"/>
	<polygon class="st10" points="399,398.9 424.3,323.9 398.3,323.9 	"/>
	<polygon class="st19" points="399,398.9 436.1,361.7 424.3,323.9 	"/>
	<polygon class="st22" points="436.1,286.1 399.2,248.7 424.3,323.9 	"/>
	<polygon class="st12" points="436.1,361.7 473.8,323.8 424.2,323.8 	"/>
	<polygon class="st14" points="436,286.2 424.2,323.9 473.8,324 	"/>
	<polyline class="st20" points="323.7,398.6 248.7,398.8 324.1,324.1 323.7,398.6 	"/>
	<polygon class="st15" points="324.1,324.1 399,398.9 323.7,398.6 	"/>
	<polygon class="st10" points="399,398.9 323.7,398.6 323.4,424.5 	"/>
	<polygon class="st26" points="248.7,398.8 323.4,424.5 323.7,398.6 	"/>
	<polygon class="st22" points="248.7,398.8 285.9,436.3 323.4,424.5 	"/>
	<polygon class="st19" points="361.4,436.3 399,398.9 323.4,424.5 	"/>
	<polygon class="st12" points="286.1,436.1 323.7,474.1 323.7,424.3 	"/>
	<polygon class="st14" points="323.4,424.4 361.4,436.3 323.6,474 	"/>
	<polyline class="st25" points="249,324 324.1,324 248.9,248.4 249.2,324 	"/>
	<polygon class="st25" points="324.1,324 248.7,398.7 249.2,324 	"/>
	<polygon class="st26" points="248.7,398.8 249.2,324.1 223.5,324.1 	"/>
	<polygon class="st10" points="248.9,248.5 223.5,324.1 249.2,324.1 	"/>
	<polygon class="st19" points="248.9,248.5 211.4,286.3 223.5,324.1 	"/>
	<polygon class="st22" points="211.4,361.9 248.7,398.8 223.5,324.1 	"/>
	<polygon class="st12" points="211.4,286.3 173.7,324.1 223.5,324.1 	"/>
	<polygon class="st14" points="211.4,361.9 223.8,323.8 173.9,323.9 	"/>
	<polyline class="st20" points="323.9,249.4 324.1,324.1 399.2,248.7 323.9,249.4 	"/>
	<polygon class="st15" points="324.1,324.1 248.9,248.5 323.9,249.4 	"/>
	<polygon class="st10" points="248.9,248.5 323.9,249.4 324.1,224.1 	"/>
	<polygon class="st26" points="399.2,248.7 324.1,224.1 323.9,249.4 	"/>
	<polygon class="st22" points="399.2,248.7 361.6,211.7 324.1,224.1 	"/>
	<polygon class="st19" points="286.1,211.7 248.9,248.5 324.1,224.1 	"/>
	<polygon class="st12" points="361.6,211.7 323.8,174 324.1,224.2 	"/>
	<polygon class="st14" points="324.1,224.1 286.1,211.7 323.9,173.9 	"/>
</g>
</svg>
